<svg xmlns="http://www.w3.org/2000/svg" viewBox="0 0 200 200">
  <defs>
    <marker id="ah" markerWidth="9" markerHeight="9" refX="6.5" refY="3" orient="auto">
      <path d="M0,0 L6.5,3 L0,6 Z" fill="#10b981"/>
    </marker>
    <filter id="glow" x="-60%" y="-60%" width="220%" height="220%">
      <feGaussianBlur stdDeviation="2.4" result="b"/>
      <feMerge><feMergeNode in="b"/><feMergeNode in="SourceGraphic"/></feMerge>
    </filter>
    <symbol id="tile" viewBox="0 0 44 24">
      <rect x="1" y="1" width="42" height="22" rx="4" fill="#1f2937" stroke="currentColor" stroke-width="2"/>
      <line x1="22" y1="4" x2="22" y2="20" stroke="currentColor" stroke-width="1.4" opacity="0.55"/>
      <circle cx="11" cy="12" r="2.2" fill="currentColor"/>
      <circle cx="31" cy="8" r="2.2" fill="currentColor"/>
      <circle cx="34" cy="16" r="2.2" fill="currentColor"/>
    </symbol>
  </defs>
  <rect x="30" y="30" width="140" height="140" rx="32" fill="#0f172a" stroke="#26303f" stroke-width="2"/>
  <g opacity="0.3">
    <use href="#tile" x="78" y="43" width="44" height="24" color="#60a5fa"/>
    <use href="#tile" x="78" y="133" width="44" height="24" color="#60a5fa"/>
  </g>
  <rect x="26" y="83" width="52" height="34" rx="9" fill="none" stroke="#10b981" stroke-width="2.5" filter="url(#glow)"/>
  <use href="#tile" x="30" y="88" width="44" height="24" color="#f87171"/>
  <rect x="122" y="83" width="52" height="34" rx="9" fill="none" stroke="#10b981" stroke-width="2.5" filter="url(#glow)"/>
  <use href="#tile" x="126" y="88" width="44" height="24" color="#f87171"/>
  <line x1="76" y1="100" x2="86" y2="100" stroke="#10b981" stroke-width="2.5" marker-end="url(#ah)"/>
  <line x1="124" y1="100" x2="114" y2="100" stroke="#10b981" stroke-width="2.5" marker-end="url(#ah)"/>
  <circle cx="100" cy="100" r="16" fill="#0f172a" stroke="#10b981" stroke-width="2.5" filter="url(#glow)"/>
  <text x="100" y="107" fill="#10b981" font-size="20" font-weight="800" text-anchor="middle" font-family="-apple-system, BlinkMacSystemFont, 'Segoe UI', Roboto, sans-serif">+</text>
</svg>
